<svg xmlns="http://www.w3.org/2000/svg" viewBox="0 0 1694.5 380"><defs><style>.cls-1{fill:#fff;}</style></defs><g id="Слой_2" data-name="Слой 2"><g id="Слой_1-2" data-name="Слой 1"><rect class="cls-1" y="120" width="73" height="260"/><rect class="cls-1" x="93.5" y="213.5" width="73" height="260" transform="translate(473.5 213.5) rotate(90)"/><rect class="cls-1" x="117" width="15" height="261"/><rect class="cls-1" x="232" y="131" width="15" height="245" transform="translate(493 14) rotate(90)"/><rect class="cls-1" x="232" y="-115" width="15" height="245" transform="translate(247 -232) rotate(90)"/><rect class="cls-1" x="347" width="15" height="261"/><rect class="cls-1" x="228.07" width="15" height="106"/><rect class="cls-1" x="294.5" y="82.5" width="15" height="120" transform="translate(444.5 -159.5) rotate(90)"/><rect class="cls-1" x="228.01" y="124" width="15" height="39"/><rect class="cls-1" x="228" y="181" width="15" height="80"/><rect class="cls-1" x="185" y="223" width="15" height="38"/><rect class="cls-1" x="151" y="132" width="15" height="83" transform="translate(332 15) rotate(90)"/><rect class="cls-1" x="185" y="166" width="15" height="36"/><rect class="cls-1" x="147.5" y="11.5" width="15" height="76" transform="translate(204.5 -105.5) rotate(90)"/><rect class="cls-1" x="220" y="34" width="15" height="31" transform="translate(277 -178) rotate(90)"/><path class="cls-1" d="M575.24,162.29l1.16,20.35q.18,9.8,4.22,15.93H553.94q-3.47-5.76-3.65-16.31l-.58-15q-.57-12.48-5.66-17.38T527.83,145H494.05v53.55H468.13V61.9h62q22.85,0,35.52,10.37t12.66,28.22q0,24.57-22.84,32.63,10.37,3.25,14.88,10.27T575.24,162.29ZM494.05,83.21v41.46H528.6q10.93,0,17-5.47t6-15.83q0-9.8-6.24-15t-17.75-5.18Z"/><path class="cls-1" d="M702.31,61.9V85.13H627.45v32.25h67.76v22.26H627.45v35.71h74.48v23.22H601.54V61.9Z"/><path class="cls-1" d="M814.41,97.61V61.9h25V198.57h-28.8l-38-60.85Q757,113.35,748.19,96.65q.76,21.5.77,66.22v35.7H724V61.9h28.79L791,122.75q17.09,27.65,24.19,41.08Q814.42,135.22,814.41,97.61Z"/><path class="cls-1" d="M930.16,201.64q-30.72,0-49.53-19.57-18.81-19.77-18.81-51.83t18.81-51.83q18.81-19.57,49.53-19.58t49.52,19.58q18.62,19.4,18.62,51.83t-18.62,51.83Q960.87,201.65,930.16,201.64Zm-41.27-71.4q0,22.45,11.32,35.51t29.95,13.05q18.81,0,30.13-13.05,11.13-12.85,11.14-35.51T960.29,94.73q-11.32-13-30.13-13.06-18.63,0-29.95,13.06T888.89,130.24Z"/><path class="cls-1" d="M1079.88,132.54l24.19-70.64h26.87l-49,136.67h-30.33L1001.56,61.9h27.64L1054,132.54q8.63,26.11,13,42.62Q1072,156.16,1079.88,132.54Z"/><path class="cls-1" d="M1252.44,198.57H1225l-10.75-30.13h-59.89l-10.55,30.13h-26.68l52-136.67h30.33Zm-85-67-5.19,14.78h44.15L1201,131.58q-6.72-17.09-16.89-46.83Q1176,108.54,1167.41,131.58Z"/><path class="cls-1" d="M1239.39,61.9H1353V85.13h-43.77V198.57h-26.11V85.13h-43.76Z"/><path class="cls-1" d="M1397.75,198.57h-25.92V61.9h25.92Z"/><path class="cls-1" d="M1488.54,201.64q-30.7,0-49.52-19.57-18.81-19.77-18.81-51.83T1439,78.41q18.81-19.57,49.52-19.58t49.53,19.58q18.62,19.4,18.61,51.83t-18.61,51.83Q1519.25,201.65,1488.54,201.64Zm-41.27-71.4q0,22.45,11.33,35.51t29.94,13.05q18.81,0,30.14-13.05,11.13-12.85,11.13-35.51t-11.13-35.51q-11.33-13-30.14-13.06-18.61,0-29.94,13.06T1447.27,130.24Z"/><path class="cls-1" d="M1669.55,97.61V61.9h25V198.57h-28.79l-38-60.85q-15.56-24.37-24.38-41.07.76,21.5.76,66.22v35.7h-24.95V61.9h28.79l38.2,60.85q17.08,27.65,24.19,41.08Q1669.55,135.22,1669.55,97.61Z"/></g></g></svg>