<?xml version="1.0" encoding="iso-8859-1"?>
<!-- Generator: Adobe Illustrator 21.0.0, SVG Export Plug-In . SVG Version: 6.00 Build 0)  -->
<svg version="1.1" id="Layer_1" xmlns="http://www.w3.org/2000/svg" xmlns:xlink="http://www.w3.org/1999/xlink" x="0px" y="0px"
	 viewBox="0 0 100 100" style="enable-background:new 0 0 100 100;" xml:space="preserve">
<path style="fill:#231F20;" d="M82.126,16.375H17.875c-0.829,0-1.5,0.672-1.5,1.5v64.251c0,0.828,0.671,1.5,1.5,1.5h24.566
	c0.829,0,1.5-0.672,1.5-1.5c0-0.829-0.671-1.5-1.5-1.5H19.375v-18.48h12.331c0.829,0,1.5-0.671,1.5-1.5s-0.671-1.5-1.5-1.5H19.375
	V19.375h30.768v19.156c0,0.828,0.671,1.5,1.5,1.5s1.5-0.672,1.5-1.5V19.375h27.484v29.879H41.164c-0.829,0-1.5,0.671-1.5,1.5
	c0,0.828,0.671,1.5,1.5,1.5h39.463v28.372h-17.46l-9.138-13.303c-0.47-0.683-1.403-0.856-2.085-0.387
	c-0.683,0.469-0.856,1.403-0.387,2.086l9.585,13.953c0.279,0.407,0.742,0.651,1.236,0.651h19.749c0.828,0,1.5-0.672,1.5-1.5V17.875
	C83.626,17.046,82.954,16.375,82.126,16.375z"/>
</svg>
