<svg xmlns="http://www.w3.org/2000/svg" viewBox="0 0 850 643.91"><defs><style>.cls-1{fill:#fff;}</style></defs><g id="Слой_2" data-name="Слой 2"><g id="Слой_1-2" data-name="Слой 1"><path class="cls-1" d="M50,99.5a49.5,49.5,0,0,1,0-99H800a49.5,49.5,0,0,1,0,99Z"/><path class="cls-1" d="M800,1a49,49,0,0,1,0,98H50A49,49,0,0,1,50,1H800m0-1H50A50,50,0,0,0,0,50H0a50,50,0,0,0,50,50H800a50,50,0,0,0,50-50h0A50,50,0,0,0,800,0Z"/><path class="cls-1" d="M50,643.41a49.5,49.5,0,0,1,0-99H800a49.5,49.5,0,0,1,0,99Z"/><path class="cls-1" d="M800,544.91a49,49,0,0,1,0,98H50a49,49,0,0,1,0-98H800m0-1H50a50,50,0,0,0-50,50H0a50,50,0,0,0,50,50H800a50,50,0,0,0,50-50h0a50,50,0,0,0-50-50Z"/><path class="cls-1" d="M50,371.46a49.5,49.5,0,0,1,0-99H800a49.5,49.5,0,0,1,0,99Z"/><path class="cls-1" d="M800,273a49,49,0,0,1,0,98H50a49,49,0,0,1,0-98H800m0-1H50A50,50,0,0,0,0,322H0a50,50,0,0,0,50,50H800a50,50,0,0,0,50-50h0a50,50,0,0,0-50-50Z"/></g></g></svg>