<svg xmlns="http://www.w3.org/2000/svg" viewBox="0 0 630.33 630.33"><defs><style>.cls-1{fill:#fff;}</style></defs><g id="Слой_2" data-name="Слой 2"><g id="Слой_1-2" data-name="Слой 1"><path class="cls-1" d="M580.33,629.83a49.18,49.18,0,0,1-35-14.5L15,85A49.5,49.5,0,1,1,85,15L615.33,545.33a49.5,49.5,0,0,1-35,84.5Z"/><path class="cls-1" d="M50,1A48.71,48.71,0,0,1,84.65,15.35L615,545.68a49,49,0,0,1-69.3,69.3L15.35,84.65A49,49,0,0,1,50,1m0-1A49.87,49.87,0,0,0,14.64,14.64h0a50,50,0,0,0,0,70.72L545,615.69a50,50,0,0,0,70.72,0h0a50,50,0,0,0,0-70.72L85.36,14.64A49.87,49.87,0,0,0,50,0Z"/><path class="cls-1" d="M50,629.83a49.5,49.5,0,0,1-35-84.5L545.33,15a49.5,49.5,0,1,1,70,70L85,615.33A49.18,49.18,0,0,1,50,629.83Z"/><path class="cls-1" d="M580.33,1A49,49,0,0,1,615,84.65L84.65,615a49,49,0,0,1-69.3-69.3L545.68,15.35A48.71,48.71,0,0,1,580.33,1m0-1A49.87,49.87,0,0,0,545,14.64L14.64,545a50,50,0,0,0,0,70.72h0a50,50,0,0,0,70.72,0L615.69,85.36a50,50,0,0,0,0-70.72h0A49.87,49.87,0,0,0,580.33,0Z"/></g></g></svg>